# Blender v2.81 (sub 16) OBJ File: 'mount-stone.blend'
# www.blender.org
mtllib mount-stone.mtl
o Cube_Cube.001
v -1.009640 2.081236 1.835096
v -1.169124 -0.035168 1.931667
v -1.146340 1.987778 3.273936
v -0.891373 -0.159199 3.573867
v -2.420630 1.862708 2.125882
v -2.472195 -0.005992 1.962270
v -2.673577 2.200582 3.373796
v -2.497667 0.010348 3.424909
v -2.506250 2.781338 3.167476
v -2.281385 2.445002 2.279614
v -1.484042 2.512836 1.775289
v -1.325086 2.587337 3.077687
v -2.622109 -2.556873 3.308694
v -1.322560 -2.556873 1.917149
v -1.015814 -2.726420 3.457652
v -2.622109 -2.556873 1.917149
v -1.677419 0.003795 2.024490
v -1.531745 0.515861 2.058612
v -1.114598 -0.035816 2.452811
v -1.034686 1.187585 1.963680
v -1.373331 0.893978 1.918176
v -1.071769 0.451038 2.393648
v -1.108043 0.666556 2.233117
v -1.059521 0.917510 2.136651
v -1.560101 0.201459 2.042909
v -1.473300 0.009568 1.858453
v -1.221593 -0.473943 2.011440
v -1.471273 -0.475674 1.964463
v -1.289465 -0.017469 1.902701
v -1.433554 0.003722 1.868019
v -1.150943 -0.035384 2.105438
v -1.129754 -0.035636 2.307957
v -1.123365 -0.035712 2.369012
v -1.370957 -0.177176 1.918618
v -1.130983 -0.141812 2.392725
v -1.150138 -0.298609 2.328833
v -1.171137 -0.199081 2.129292
v -0.988999 0.662870 3.459024
v -1.092774 1.780690 3.001784
v -1.042621 1.983992 2.210706
v -1.047710 1.198289 3.237226
vn -0.9766 0.0454 -0.2102
vn -0.1861 -0.0684 -0.9802
vn 0.9904 0.0997 0.0963
vn 0.0692 0.0288 0.9972
vn -0.0965 -0.0403 0.9945
vn -0.9985 0.0538 -0.0092
vn -0.0781 0.1288 0.9886
vn 0.0592 0.0773 -0.9953
vn -0.9966 -0.0804 -0.0165
vn -0.0963 -0.9913 -0.0899
vn 0.0000 -1.0000 0.0000
vn 0.0116 0.0258 -0.9996
vn 0.5008 -0.4444 -0.7428
vn 0.5215 -0.4937 -0.6959
vn 0.4741 -0.4732 -0.7425
vn 0.6047 -0.1380 -0.7844
vn 0.1885 -0.2057 -0.9603
vn 0.9794 -0.0398 -0.1981
vn 0.9903 0.1205 0.0698
vn 0.9930 0.0690 -0.0962
vn 0.9974 0.0660 -0.0276
vn 0.9960 -0.0409 0.0791
vn 0.9964 -0.0159 0.0834
vn 0.9981 -0.0090 0.0610
vn 0.9836 -0.1769 0.0346
vn 0.9908 0.0953 -0.0959
vn 0.9900 0.0229 -0.1395
vn 0.1141 0.3217 0.9399
vn -0.9309 0.2326 -0.2817
vn 0.1295 0.9377 -0.3224
vn -0.1118 0.9928 -0.0432
vn -0.3359 -0.0238 -0.9416
vn 0.8451 0.5345 -0.0032
vn 0.9852 -0.1366 -0.1033
vn 0.0813 0.9963 0.0270
vn 0.2017 -0.1985 -0.9591
vn 0.9901 -0.0943 -0.1037
vn 0.9910 -0.0851 -0.1038
usemtl Stone
s off
f 7//1 5//1 6//1
f 5//2 1//2 20//2 21//2 18//2
f 1//3 3//3 39//3 40//3
f 3//4 7//4 8//4
f 4//5 8//5 13//5 15//5
f 8//6 6//6 16//6 13//6
f 3//7 8//7 4//7 38//7
f 5//8 18//8 25//8 17//8 6//8
f 7//9 6//9 8//9
f 14//10 15//10 13//10
f 14//11 13//11 16//11
f 6//12 17//12 26//12 28//12 27//12 14//12 16//12
f 23//13 18//13 21//13 24//13
f 21//14 20//14 24//14
f 23//15 22//15 18//15
f 19//16 17//16 25//16 18//16 22//16
f 27//17 28//17 26//17 30//17 34//17 29//17
f 27//18 31//18 37//18 32//18 36//18 33//18 35//18 19//18 4//18 15//18 14//18
f 39//19 3//19 38//19 41//19
f 38//20 23//20 41//20
f 41//21 24//21 39//21
f 39//22 24//22 20//22
f 20//23 1//23 40//23
f 40//24 39//24 20//24
f 24//25 41//25 23//25
f 23//26 38//26 22//26
f 22//27 38//27 4//27 19//27
usemtl Stone-top-field
f 7//28 3//28 12//28 9//28
f 5//29 7//29 9//29 10//29
f 10//30 9//30 12//30
f 10//31 12//31 11//31
f 1//32 5//32 10//32 11//32
f 3//33 1//33 11//33 12//33
f 2//34 31//34 27//34
f 17//35 19//35 33//35 32//35 31//35 2//35 29//35 30//35 26//35
f 29//36 34//36 30//36
f 29//36 2//36 27//36
f 19//37 35//37 33//37
f 33//38 36//38 32//38
f 32//34 37//34 31//34
o Cylinder.001
v -1.982135 2.503179 2.497395
v -1.982135 2.644082 2.497395
v -1.920370 2.503179 2.559333
v -1.920370 2.644082 2.559333
v -1.964809 2.503179 2.626359
v -1.964809 2.644082 2.626359
v -2.054039 2.503179 2.605847
v -2.054039 2.644082 2.605847
v -2.064746 2.503179 2.526143
v -2.064746 2.644082 2.526143
v -1.719300 2.594973 2.549686
v -1.942666 2.609378 2.325694
v -1.880011 2.609378 2.792084
v -2.202701 2.609378 2.717901
v -2.241425 2.594973 2.429657
v -1.965494 3.244417 2.494069
v -1.999468 3.237495 2.460856
v -1.990065 3.251870 2.530016
v -2.039225 3.249554 2.519020
v -2.045036 3.240670 2.476276
v -1.819244 2.746453 2.546407
v -1.856129 2.876685 2.550709
v -1.893935 3.006495 2.542974
v -1.932278 3.136270 2.528214
v -1.971349 3.148121 2.585375
v -1.954362 3.014654 2.633581
v -1.937976 2.882872 2.673932
v -1.922517 2.747630 2.702165
v -2.154761 2.745862 2.469279
v -2.121980 2.873575 2.489694
v -2.090117 3.002393 2.498112
v -2.058760 3.130311 2.499922
v -1.986300 3.125263 2.475402
v -1.977836 2.998917 2.459250
v -1.969850 2.870939 2.436844
v -1.962779 2.745360 2.402475
v -2.049520 3.144438 2.567889
v -2.075610 3.012119 2.605855
v -2.102281 2.880950 2.636222
v -2.129878 2.747264 2.654498
v -1.898019 3.115070 2.532216
v -2.088330 3.106105 2.489646
v -1.965834 3.136486 2.621118
v -1.979598 3.112636 2.448914
v -2.074720 3.141488 2.588074
v -1.844496 2.983817 2.543102
v -1.933554 3.010714 2.674679
v -2.133192 2.977780 2.477084
v -1.968097 2.987555 2.418139
v -2.111978 3.006983 2.633878
v -1.800548 2.855551 2.549436
v -1.914555 2.879026 2.719985
v -2.170615 2.851221 2.464503
v -1.958923 2.862416 2.389957
v -2.143245 2.871600 2.667806
v -1.746343 2.722659 2.543145
v -1.891763 2.726169 2.762451
v -2.218786 2.723528 2.434524
v -1.948467 2.737846 2.340308
v -2.183760 2.740527 2.695183
v -1.984470 2.569416 2.507556
v -1.932270 2.569416 2.559903
v -1.969828 2.569416 2.616551
v -2.045241 2.569416 2.599215
v -2.054291 2.569416 2.531852
v -1.987231 3.335220 2.443492
v -1.999027 3.332817 2.431960
v -1.995762 3.337808 2.455973
v -2.012830 3.337004 2.452155
v -2.014848 3.333919 2.437314
v -1.883739 3.061128 2.541978
v -2.099127 3.054783 2.492981
v -1.950228 3.081556 2.639638
v -1.975925 3.057211 2.449229
v -2.083345 3.077634 2.609356
v -1.934675 3.016083 2.672356
v -1.968622 2.992929 2.420260
v -2.110045 3.012353 2.632261
v -1.847138 2.989627 2.543058
v -2.130894 2.983591 2.478184
v -1.839668 2.990342 2.542710
v -2.137455 2.983981 2.474632
v -1.931534 3.018112 2.678393
v -1.967159 2.993708 2.413847
v -2.115576 3.014181 2.636318
v -1.899891 3.118243 2.531288
v -2.087085 3.109425 2.489416
v -1.966503 3.139273 2.618705
v -1.980131 3.115705 2.449390
v -2.073695 3.144084 2.586271
v -1.891713 3.119323 2.530624
v -2.094100 3.109789 2.485353
v -1.963701 3.142046 2.625126
v -1.978464 3.116531 2.442091
v -2.079622 3.147213 2.590082
v -1.802921 2.858969 2.549303
v -2.168566 2.854651 2.465387
v -1.915565 2.882067 2.717818
v -1.959402 2.865499 2.391747
v -2.141523 2.874762 2.666260
v -1.791772 2.859274 2.548742
v -2.178365 2.854699 2.460020
v -1.910870 2.883675 2.726913
v -1.957218 2.866126 2.382165
v -2.149773 2.875957 2.672401
v -1.751340 2.728933 2.543478
v -2.214381 2.729638 2.437023
v -1.893867 2.732545 2.758413
v -1.949441 2.743234 2.344689
v -2.180053 2.746209 2.692489
v -1.740590 2.731621 2.542999
v -2.223822 2.732308 2.431904
v -1.889332 2.735447 2.767303
v -1.947329 2.746355 2.335546
v -2.187996 2.749573 2.698507
v -1.881571 2.613354 2.788835
v -1.943402 2.613288 2.328583
v -2.200015 2.613343 2.715629
v -1.722975 2.599374 2.549627
v -2.238229 2.599356 2.431178
v -1.698209 2.601540 2.548342
v -2.260005 2.601515 2.419193
v -1.871130 2.616695 2.809157
v -1.938547 2.616598 2.307331
v -2.218340 2.616679 2.729338
v -1.989978 3.374490 2.414934
vn 0.7032 -0.1174 -0.7012
vn 0.8266 -0.1276 0.5481
vn -0.2226 -0.1122 0.9684
vn -0.9830 -0.1276 0.1321
vn -0.3264 -0.1174 -0.9379
vn 0.0000 -1.0000 0.0000
vn -0.3258 0.1321 -0.9362
vn -0.9808 0.1435 0.1318
vn -0.2222 0.1263 0.9668
vn 0.8248 0.1435 0.5469
vn 0.7019 0.1321 -0.6999
vn -0.2265 -0.9683 -0.1051
vn 0.7299 0.5435 0.4146
vn 0.1198 -0.9634 0.2398
vn -0.2125 -0.9634 0.1634
vn 0.0530 -0.9716 -0.2306
vn 0.2497 -0.9683 0.0044
vn -0.1974 0.6324 0.7491
vn -0.3426 0.0742 -0.9366
vn -0.2026 0.6121 0.7644
vn 0.6851 0.2136 -0.6964
vn -0.9319 0.3624 0.0144
vn -0.8104 0.5790 0.0895
vn -0.8209 0.5660 0.0766
vn -0.8630 0.5006 0.0677
vn -0.8838 0.4671 0.0263
vn 0.6117 0.5260 -0.5909
vn 0.6015 0.5443 -0.5847
vn 0.6355 0.4402 -0.6343
vn 0.6498 0.3268 -0.6862
vn -0.1831 0.5786 0.7948
vn -0.1820 0.4977 0.8481
vn -0.2042 0.5199 0.8295
vn -0.1990 0.5839 0.7871
vn -0.2947 0.5153 -0.8047
vn -0.2869 0.5535 -0.7819
vn -0.3082 0.4240 -0.8516
vn -0.3135 0.2751 -0.9089
vn 0.6807 0.5945 0.4280
vn 0.7118 0.5334 0.4569
vn 0.7315 0.5340 0.4239
vn 0.7389 0.5501 0.3891
vn 0.4637 -0.8646 0.1936
vn -0.3939 -0.7897 0.4704
vn 0.0562 -0.9708 -0.2334
vn 0.2276 -0.7551 0.6149
vn -0.5110 -0.8400 -0.1826
vn -0.3195 -0.9453 -0.0658
vn 0.1697 -0.8896 0.4240
vn 0.0480 -0.9917 -0.1194
vn -0.3000 -0.9005 0.3148
vn 0.3561 -0.9302 0.0888
vn -0.2608 -0.9623 -0.0767
vn 0.1371 -0.9345 0.3286
vn 0.0588 -0.9863 -0.1544
vn -0.2450 -0.9393 0.2401
vn 0.3353 -0.9416 0.0296
vn -0.3034 -0.9338 -0.1895
vn 0.1122 -0.9644 0.2394
vn 0.0332 -0.9646 -0.2618
vn -0.2142 -0.9611 0.1744
vn 0.2398 -0.9708 0.0079
vn -0.0006 0.9791 -0.2034
vn 0.7051 -0.2087 -0.6777
vn -0.9421 0.3299 0.0595
vn 0.7828 0.4352 0.4448
vn -0.3254 -0.2729 -0.9053
vn 0.7677 0.4829 0.4212
vn -0.3208 0.4118 -0.8529
vn -0.2076 0.4672 0.8594
vn 0.6444 0.4187 -0.6399
vn -0.8840 0.4665 0.0307
vn -0.9327 0.3556 0.0599
vn 0.6791 0.3155 -0.6628
vn -0.2158 0.3506 0.9113
vn -0.3357 0.3094 -0.8897
vn 0.8029 0.3693 0.4679
vn -0.1684 -0.9646 0.2029
vn 0.0834 -0.9906 -0.1088
vn -0.0587 -0.9371 0.3441
vn 0.0130 -0.9923 -0.1230
vn 0.1047 -0.9580 0.2669
vn -0.9336 0.3583 0.0005
vn 0.6940 0.2177 -0.6863
vn -0.2038 0.6120 0.7642
vn -0.3536 0.0753 -0.9324
vn 0.7248 0.5452 0.4214
vn -0.2498 -0.9003 0.3565
vn 0.1207 -0.9888 -0.0873
vn -0.1756 -0.8750 0.4512
vn 0.0163 -0.9936 -0.1117
vn 0.1493 -0.9295 0.3373
vn 0.7351 0.5338 0.4180
vn -0.3204 0.4249 -0.8467
vn -0.2060 0.5198 0.8291
vn 0.6458 0.4418 -0.6227
vn -0.8632 0.5006 0.0661
vn 0.0340 -0.9869 0.1580
vn 0.0303 -0.9977 -0.0605
vn -0.0090 -0.9838 0.1789
vn 0.0218 -0.9978 -0.0629
vn -0.0638 -0.9921 0.1079
vn 0.7091 0.5332 0.4614
vn -0.2996 0.5541 -0.7767
vn -0.1718 0.4975 0.8503
vn 0.6135 0.5451 -0.5714
vn -0.8211 0.5661 0.0735
vn 0.2485 -0.9516 0.1809
vn -0.0718 -0.9365 -0.3433
vn -0.1268 -0.9245 0.3596
vn 0.2135 -0.9361 -0.2797
vn -0.3213 -0.9412 0.1042
vn 0.6859 0.5945 0.4197
vn -0.3034 0.5160 -0.8011
vn -0.1827 0.5786 0.7949
vn 0.6184 0.5268 -0.5832
vn -0.8114 0.5790 0.0803
vn 0.0909 -0.9889 0.1179
vn -0.0085 -0.9874 -0.1581
vn -0.0420 -0.9822 0.1829
vn 0.0770 -0.9873 -0.1387
vn -0.1326 -0.9889 0.0663
vn -0.3246 -0.2965 -0.8982
vn 0.6813 -0.3987 -0.6138
vn 0.7954 0.3919 0.4624
vn -0.8509 0.5252 0.0065
vn -0.1787 0.7460 0.6416
usemtl Material.007
s off
f 102//39 43//39 45//39 103//39
f 103//40 45//40 47//40 104//40
f 104//41 47//41 49//41 105//41
f 105//42 49//42 51//42 106//42
f 106//43 51//43 43//43 102//43
f 42//44 44//44 46//44 48//44 50//44
f 50//45 106//45 102//45 42//45
f 48//46 105//46 106//46 50//46
f 46//47 104//47 105//47 48//47
f 44//48 103//48 104//48 46//48
f 42//49 102//49 103//49 44//49
usemtl Material.008
f 47//50 45//50 52//50 54//50
f 134//51 132//51 57//51 59//51
f 43//52 51//52 56//52 53//52
f 45//53 43//53 53//53 52//53
f 49//54 47//54 54//54 55//54
f 51//55 49//55 55//55 56//55
f 60//56 59//56 109//56 110//56
f 135//57 133//57 61//57 58//57
f 136//58 134//58 59//58 60//58
f 132//59 135//59 58//59 57//59
f 133//60 136//60 60//60 61//60
f 163//61 166//61 81//61 70//61
f 153//62 156//62 80//62 71//62
f 143//63 146//63 79//63 72//63
f 113//64 116//64 78//64 73//64
f 162//65 165//65 77//65 62//65
f 152//66 155//66 76//66 63//66
f 142//67 145//67 75//67 64//67
f 112//68 115//68 74//68 65//68
f 166//69 164//69 69//69 81//69
f 156//70 154//70 68//70 80//70
f 146//71 144//71 67//71 79//71
f 116//72 114//72 66//72 78//72
f 165//73 163//73 70//73 77//73
f 155//74 153//74 71//74 76//74
f 145//75 143//75 72//75 75//75
f 115//76 113//76 73//76 74//76
f 164//77 162//77 62//77 69//77
f 154//78 152//78 63//78 68//78
f 144//79 142//79 64//79 67//79
f 114//80 112//80 65//80 66//80
f 73//81 78//81 86//81 83//81
f 65//82 74//82 85//82 82//82
f 78//83 66//83 84//83 86//83
f 74//84 73//84 83//84 85//84
f 66//85 65//85 82//85 84//85
f 67//86 64//86 87//86 88//86
f 75//87 72//87 89//87 90//87
f 79//88 67//88 88//88 91//88
f 64//89 75//89 90//89 87//89
f 72//90 79//90 91//90 89//90
f 68//91 63//91 92//91 93//91
f 76//92 71//92 94//92 95//92
f 80//93 68//93 93//93 96//93
f 63//94 76//94 95//94 92//94
f 71//95 80//95 96//95 94//95
f 69//96 62//96 97//96 98//96
f 77//97 70//97 99//97 100//97
f 81//98 69//98 98//98 101//98
f 62//99 77//99 100//99 97//99
f 70//100 81//100 101//100 99//100
f 107//101 108//101 111//101 110//101 109//101
f 57//102 58//102 108//102 107//102
f 61//103 60//103 110//103 111//103
f 59//104 57//104 107//104 109//104
f 58//105 61//105 111//105 108//105
f 124//106 122//106 112//106 114//106
f 125//107 123//107 113//107 115//107
f 126//108 124//108 114//108 116//108
f 122//109 125//109 115//109 112//109
f 123//110 126//110 116//110 113//110
f 89//111 91//111 119//111 121//111
f 87//112 90//112 118//112 120//112
f 91//113 88//113 117//113 119//113
f 90//114 89//114 121//114 118//114
f 88//115 87//115 120//115 117//115
f 121//116 119//116 126//116 123//116
f 120//117 118//117 125//117 122//117
f 119//118 117//118 124//118 126//118
f 118//119 121//119 123//119 125//119
f 117//120 120//120 122//120 124//120
f 83//121 86//121 131//121 128//121
f 82//122 85//122 130//122 127//122
f 86//123 84//123 129//123 131//123
f 85//124 83//124 128//124 130//124
f 84//125 82//125 127//125 129//125
f 128//126 131//126 136//126 133//126
f 127//127 130//127 135//127 132//127
f 131//128 129//128 134//128 136//128
f 130//129 128//129 133//129 135//129
f 129//130 127//130 132//130 134//130
f 93//131 92//131 137//131 139//131
f 95//132 94//132 138//132 140//132
f 96//133 93//133 139//133 141//133
f 92//134 95//134 140//134 137//134
f 94//135 96//135 141//135 138//135
f 139//136 137//136 142//136 144//136
f 140//137 138//137 143//137 145//137
f 141//138 139//138 144//138 146//138
f 137//139 140//139 145//139 142//139
f 138//140 141//140 146//140 143//140
f 98//141 97//141 147//141 149//141
f 100//142 99//142 148//142 150//142
f 101//143 98//143 149//143 151//143
f 97//144 100//144 150//144 147//144
f 99//145 101//145 151//145 148//145
f 149//146 147//146 152//146 154//146
f 150//147 148//147 153//147 155//147
f 151//148 149//148 154//148 156//148
f 147//149 150//149 155//149 152//149
f 148//150 151//150 156//150 153//150
f 54//151 52//151 160//151 157//151
f 53//152 56//152 161//152 158//152
f 55//153 54//153 157//153 159//153
f 52//154 53//154 158//154 160//154
f 56//155 55//155 159//155 161//155
f 157//156 160//156 162//156 164//156
f 158//157 161//157 163//157 165//157
f 159//158 157//158 164//158 166//158
f 160//159 158//159 165//159 162//159
f 161//160 159//160 166//160 163//160
f 108//161 111//161 167//161
f 107//162 108//162 167//162
f 109//163 107//163 167//163
f 111//164 110//164 167//164
f 167//165 110//165 109//165
o Icosphere.002
v -1.617159 -0.024978 2.439840
v -1.215698 0.173068 1.894830
v -1.370987 0.339421 2.108829
v -1.434207 -0.144564 2.163259
v -1.379594 0.008884 2.499249
v -1.046446 0.005689 2.297510
v -1.795725 0.014043 2.254881
v -1.720703 0.007944 1.973545
v -1.203104 0.027412 1.865351
v -1.082778 0.188749 2.062620
v -1.251686 0.266977 2.364315
v -1.613855 0.331080 2.335769
v -1.699616 0.241830 2.038831
vn -0.0860 0.7554 -0.6496
vn 0.4671 0.8836 0.0324
vn 0.3800 0.8434 -0.3799
vn -0.2352 0.9475 -0.2169
vn 0.1553 0.9671 0.2017
vn 0.9042 -0.2577 -0.3407
vn 0.7606 0.1913 -0.6204
vn -0.2588 0.1701 -0.9508
vn -0.2065 0.2803 -0.9374
vn -0.9533 0.1579 -0.2576
vn -0.8740 0.4733 0.1102
vn -0.2698 0.2724 0.9236
vn 0.0112 0.4589 0.8884
vn 0.7860 0.5407 0.2998
vn -0.6805 0.2114 0.7016
vn 0.5102 0.1861 0.8397
vn -0.0827 -0.8340 -0.5456
vn -0.4196 -0.9030 -0.0923
vn -0.3632 -0.9184 0.1569
vn 0.4122 -0.8902 -0.1942
vn 0.0269 -0.9109 0.4117
vn 0.2189 -0.9005 0.3757
usemtl stone
s off
f 169//166 180//166 170//166
f 178//167 177//167 170//167
f 177//168 169//168 170//168
f 180//169 179//169 170//169
f 179//170 178//170 170//170
f 173//171 176//171 177//171
f 176//172 169//172 177//172
f 176//173 180//173 169//173
f 176//174 175//174 180//174
f 175//175 174//175 180//175
f 174//176 179//176 180//176
f 168//177 172//177 179//177
f 172//178 178//178 179//178
f 173//179 177//179 178//179
f 174//180 168//180 179//180
f 172//181 173//181 178//181
f 171//182 175//182 176//182
f 171//183 174//183 175//183
f 171//184 168//184 174//184
f 173//185 171//185 176//185
f 168//186 171//186 172//186
f 171//187 173//187 172//187
